<svg xmlns="http://www.w3.org/2000/svg" width="12" height="15" viewBox="0 0 12 15"><g><g><path d="M11.458 5.873v8.55a.586.586 0 0 1-.595.577H1.137a.586.586 0 0 1-.595-.577v-8.55c0-.106.088-.192.198-.192h10.52c.11 0 .198.086.198.192zm-3.33 4.953c0-.878-1.079-2.195-1.687-2.846a.608.608 0 0 0-.882 0c-.607.65-1.688 1.967-1.688 2.846 0 1.138.955 2.064 2.129 2.064s2.129-.926 2.129-2.064zM12 1.612a.584.584 0 0 1-.542.574v2.533a.195.195 0 0 1-.198.193H.74a.195.195 0 0 1-.199-.193V2.186A.584.584 0 0 1 0 1.612c0-.319.266-.577.595-.577h8.03V.577c0-.319.267-.577.596-.577.329 0 .595.258.595.577v.458h1.589c.328 0 .595.258.595.577z"/></g></g></svg>