<svg xmlns="http://www.w3.org/2000/svg" width="17" height="14" viewBox="0 0 17 14"><g><g><path d="M17 4.307v7.54c0 .594-.222 1.102-.665 1.522-.442.421-.976.631-1.602.631H2.267c-.626 0-1.16-.21-1.602-.63A2.025 2.025 0 0 1 0 11.845V4.307c0-.594.22-1.102.664-1.523.442-.42.976-.63 1.602-.63H4.25l.452-1.145c.112-.275.317-.512.615-.711.298-.199.604-.299.917-.299h4.533c.312 0 .618.1.916.299.298.2.503.436.615.711l.452 1.144h1.983c.626 0 1.16.21 1.602.631.443.421.665.929.664 1.523zm-4.534 3.77c0-1.038-.387-1.925-1.164-2.663-.776-.738-1.71-1.106-2.802-1.106s-2.026.368-2.802 1.106c-.776.738-1.164 1.625-1.164 2.663 0 1.038.388 1.925 1.164 2.663.776.738 1.71 1.106 2.802 1.106s2.026-.368 2.802-1.106c.776-.738 1.164-1.625 1.164-2.663zm-2.164-1.712c.499.474.748 1.044.748 1.712 0 .668-.25 1.238-.748 1.712-.499.474-1.1.711-1.802.711a2.522 2.522 0 0 1-1.802-.71C6.2 9.314 5.95 8.744 5.95 8.076c0-.668.25-1.238.748-1.712A2.522 2.522 0 0 1 8.5 5.654c.702 0 1.303.237 1.802.71z"/></g></g></svg>