<svg xmlns="http://www.w3.org/2000/svg" width="16" height="14" viewBox="0 0 16 14"><g><g><path d="M16 6.125v7c0 .525-.356.875-.889.875h-.889c-.533 0-.889-.35-.889-.875v-.875H2.667v.875c0 .525-.356.875-.89.875H.89C.356 14 0 13.65 0 13.125v-7L1.867.875C2.044.35 2.489 0 3.11 0h9.778c.533 0 1.067.35 1.244.875zM4.444 8.312c0-.7-.622-1.312-1.333-1.312s-1.333.612-1.333 1.312c0 .7.622 1.313 1.333 1.313s1.333-.613 1.333-1.313zm9.778 0c0-.7-.622-1.312-1.333-1.312s-1.333.612-1.333 1.312c0 .7.622 1.313 1.333 1.313s1.333-.613 1.333-1.313zm0-3.062L12.89 1.312H3.11L1.778 5.25z"/></g></g></svg>