<svg xmlns="http://www.w3.org/2000/svg" width="12" height="14" viewBox="0 0 12 14"><g><g><path d="M12 2.947v7c0 1.4-1.2 2.58-2.625 2.58L10.5 13.63V14h-9v-.369l1.125-1.105C1.2 12.526 0 11.347 0 9.947v-7C0 .368 2.7 0 6 0s6 .368 6 2.947zm-8.25 7c0-.59-.525-1.105-1.125-1.105S1.5 9.358 1.5 9.947c0 .59.525 1.106 1.125 1.106s1.125-.516 1.125-1.106zm1.5-7H1.5v3.685h3.75zm5.25 7c0-.59-.525-1.105-1.125-1.105S8.25 9.358 8.25 9.947c0 .59.525 1.106 1.125 1.106s1.125-.516 1.125-1.106zm0-7H6.75v3.685h3.75z"/></g></g></svg>