<svg xmlns="http://www.w3.org/2000/svg" width="48" height="47" viewBox="0 0 48 47"><g><g><path fill="#1e1e1e" d="M41.47 16.131v2.438a.691.691 0 0 1-.687.696h-.002a.691.691 0 0 1-.686-.697v-1.741H1.375V34.93h26.577c.38 0 .687.313.687.697a.692.692 0 0 1-.687.695H.686A.69.69 0 0 1 0 35.627V16.129a.69.69 0 0 1 .688-.694h40.096a.69.69 0 0 1 .686.696zm-4.812-3.25a.691.691 0 0 1-.837.68L4.416 6.404l-1.453 6.63a.688.688 0 0 1-.82.528.697.697 0 0 1-.523-.831L3.224 5.42a.685.685 0 0 1 .822-.528l32.076 7.311a.694.694 0 0 1 .536.678zm-4.06-3.793a.686.686 0 0 1-.902.374L13.045 1.59l-1.316 2.668v-.001a.685.685 0 0 1-.955.323.703.703 0 0 1-.278-.947l1.603-3.25a.685.685 0 0 1 .882-.331l19.246 8.123a.701.701 0 0 1 .37.913zM33.4 19.38a.692.692 0 0 1-.687.696H26.35a.692.692 0 0 1-.688-.696c0-.385.308-.697.688-.697h6.364c.38 0 .687.312.687.697zm-6.41 6.498c0 3.948-3.16 7.149-7.057 7.149-3.895-.005-7.053-3.203-7.056-7.149 0-3.948 3.159-7.148 7.056-7.148 3.898 0 7.057 3.2 7.057 7.148zm-1.283 0c0-3.23-2.585-5.849-5.774-5.849-3.187.004-5.77 2.62-5.773 5.849 0 3.23 2.584 5.849 5.773 5.849 3.189 0 5.774-2.62 5.774-5.849zM48 24.254V43.75c0 2.233-4.571 3.25-8.821 3.25s-8.821-1.017-8.821-3.25V24.254c0-2.232 4.57-3.249 8.821-3.249 4.25 0 8.82 1.017 8.82 3.25zm-1.604 18.218c-1.706.868-4.525 1.277-7.217 1.277-2.692 0-5.51-.405-7.217-1.277v1.277c.12.44 2.526 1.625 7.217 1.625s7.096-1.186 7.217-1.637zm0-3.25c-1.706.868-4.525 1.278-7.217 1.278-2.692 0-5.51-.406-7.217-1.277V40.5c.12.438 2.526 1.625 7.217 1.625s7.096-1.187 7.217-1.637zm0-3.249c-1.706.868-4.525 1.278-7.217 1.278-2.692 0-5.51-.406-7.217-1.277v1.277c.12.439 2.526 1.625 7.217 1.625s7.096-1.186 7.217-1.637zm0-3.25c-1.706.869-4.525 1.278-7.217 1.278-2.692 0-5.51-.405-7.217-1.276V34c.12.44 2.526 1.626 7.217 1.626s7.096-1.187 7.217-1.637zm0-3.248c-1.706.868-4.525 1.278-7.217 1.278-2.692 0-5.51-.41-7.217-1.277v1.277c.12.438 2.526 1.624 7.217 1.624s7.096-1.186 7.217-1.637zm0-3.25c-1.706.869-4.525 1.279-7.217 1.279-2.692 0-5.51-.41-7.217-1.277v1.277c.12.437 2.526 1.624 7.217 1.624s7.096-1.187 7.217-1.637zm0-1.97c-.16-.46-2.566-1.625-7.217-1.625-4.684 0-7.088 1.181-7.217 1.634v.005c.129.427 2.533 1.61 7.217 1.61 4.651 0 7.057-1.165 7.217-1.625zm-32.19 8.122a.691.691 0 0 1-.688.695H7.152a.685.685 0 0 1-.507-.226l-3.258-3.61a.7.7 0 0 1-.18-.47V22.99a.88.88 0 0 1 .207-.57l3.582-3.539a.685.685 0 0 1 .481-.197h6.041c.38 0 .687.312.687.697a.692.692 0 0 1-.687.696H7.756l-3.174 3.139v5.28l2.874 3.184h6.062c.38 0 .687.312.687.697zm8.133-5.479a1.883 1.883 0 0 1-1.604 1.788v.036c0 .448-.359.812-.802.812a.807.807 0 0 1-.802-.812h-.802a.807.807 0 0 1-.801-.813c0-.448.359-.811.801-.811h2.005c.25 0 .401-.142.401-.204 0-.061-.151-.203-.4-.203h-.803a1.925 1.925 0 0 1-2.004-1.831c.04-.91.714-1.66 1.603-1.788v-.036c0-.449.36-.813.802-.813.443 0 .802.364.802.813h.802c.443 0 .802.364.802.812 0 .45-.36.812-.802.812h-2.005c-.25 0-.4.142-.4.203 0 .062.15.203.4.203h.802a1.925 1.925 0 0 1 2.005 1.832z"/></g></g></svg>